<svg id="svg" version="1.1" xmlns="http://www.w3.org/2000/svg" xmlns:xlink="http://www.w3.org/1999/xlink" width="400" height="400" viewBox="0, 0, 400,400"><g id="svgg"><path id="path0" d="M70.667 137.252 C 45.992 139.894,30.819 154.265,23.561 181.867 C 23.378 182.562,23.053 182.937,22.287 183.336 C 21.137 183.935,21.027 184.160,20.125 187.733 C 17.844 196.765,17.697 208.953,19.769 217.200 C 20.441 219.872,20.167 219.663,23.615 220.140 C 30.543 221.099,31.807 221.533,32.453 223.178 C 32.682 223.760,33.049 224.305,33.269 224.390 C 34.215 224.753,39.262 225.122,41.483 224.991 L 43.900 224.849 44.199 226.593 C 44.581 228.825,44.883 229.134,45.471 227.894 C 46.074 226.625,46.057 226.587,46.082 229.278 C 46.139 235.279,47.804 243.355,49.805 247.333 C 52.047 251.793,57.879 258.250,57.211 255.533 C 57.036 254.822,57.065 254.833,58.182 255.887 C 64.617 261.964,69.637 263.880,79.067 263.856 C 84.109 263.843,85.563 263.524,89.268 261.617 L 91.736 260.346 91.116 261.173 C 89.998 262.663,89.995 262.731,91.071 262.282 C 94.654 260.785,98.061 256.707,102.113 249.067 C 103.590 246.282,103.659 246.247,103.052 248.591 C 102.530 250.606,102.645 250.711,103.806 249.281 C 107.426 244.822,109.125 233.827,106.953 228.915 C 106.309 227.459,106.628 227.597,107.796 229.280 L 108.666 230.533 108.843 229.200 C 108.940 228.467,109.043 227.147,109.071 226.267 L 109.123 224.667 109.665 226.379 L 110.207 228.091 110.977 226.394 C 111.400 225.461,111.774 224.672,111.807 224.640 C 111.840 224.609,113.033 224.672,114.458 224.780 C 119.152 225.137,123.733 224.621,123.733 223.736 C 123.733 222.130,125.847 221.075,130.133 220.540 C 131.380 220.385,133.208 220.129,134.197 219.972 L 135.993 219.686 136.398 218.324 C 139.424 208.132,138.121 185.949,134.356 183.572 C 133.782 183.210,133.213 182.648,133.090 182.324 C 132.967 181.999,131.767 178.373,130.422 174.267 C 125.004 157.722,117.986 149.068,104.702 142.548 C 96.146 138.349,81.584 136.083,70.667 137.252 M90.400 139.293 C 99.701 141.067,106.228 143.956,112.820 149.216 C 115.143 151.070,115.458 151.575,113.438 150.208 C 109.157 147.311,103.652 144.873,98.182 143.451 C 94.072 142.383,93.991 142.475,97.733 143.965 C 113.608 150.287,121.030 158.608,127.243 177.051 C 129.832 184.737,132.778 198.440,131.956 198.970 C 131.063 199.546,130.830 199.099,130.348 195.884 C 126.413 169.633,115.511 152.984,98.667 147.502 C 86.529 143.552,67.286 143.835,56.000 148.129 C 42.383 153.309,32.998 166.310,27.990 186.930 C 27.085 190.655,27.085 189.579,27.988 183.328 C 28.430 180.271,28.757 177.735,28.716 177.694 C 28.416 177.394,25.785 188.856,24.866 194.467 L 24.135 198.933 23.134 198.933 C 21.961 198.933,21.976 199.016,22.416 194.989 C 23.315 186.770,27.948 171.087,31.474 164.331 C 39.067 149.781,52.816 140.650,70.118 138.668 C 74.467 138.170,86.448 138.539,90.400 139.293 M85.903 151.055 C 95.400 152.319,102.181 155.433,109.037 161.676 C 113.353 165.606,114.892 166.342,117.724 165.828 C 118.940 165.608,123.740 174.722,125.419 180.440 L 125.822 181.814 124.322 180.973 C 123.498 180.511,122.304 179.623,121.671 179.000 C 121.038 178.377,120.412 177.867,120.281 177.867 C 120.150 177.867,119.960 177.477,119.859 177.000 C 119.606 175.801,118.483 173.779,117.600 172.933 L 116.864 172.228 115.032 173.150 C 113.020 174.164,110.082 176.268,109.480 177.129 C 109.103 177.667,109.084 177.662,108.348 176.777 C 107.937 176.282,106.721 174.885,105.647 173.672 L 103.694 171.467 105.463 171.467 C 107.779 171.467,107.615 171.279,103.512 169.225 C 86.524 160.720,69.948 159.134,58.445 164.911 C 55.403 166.439,54.891 166.989,56.701 166.787 L 58.000 166.642 57.336 167.121 C 53.234 170.080,50.214 173.049,47.161 177.124 L 46.189 178.422 44.980 176.611 C 44.315 175.615,43.231 174.273,42.571 173.630 L 41.371 172.459 40.219 173.306 C 38.892 174.281,37.559 175.878,37.055 177.095 C 36.739 177.858,31.651 181.600,30.929 181.600 C 30.393 181.600,32.703 175.449,34.694 171.572 C 36.850 167.377,38.138 165.560,38.790 165.798 C 40.674 166.486,42.764 165.570,46.059 162.610 C 57.040 152.744,70.113 148.953,85.903 151.055 M80.636 164.665 C 86.006 165.797,89.067 166.569,89.067 166.789 C 89.067 166.844,88.617 167.163,88.067 167.497 C 87.008 168.140,83.200 171.683,83.200 172.025 C 83.200 172.136,83.923 171.944,84.806 171.598 C 89.214 169.870,91.706 169.588,95.076 170.433 C 97.835 171.125,97.848 171.208,95.311 171.955 C 93.555 172.472,89.739 174.117,89.932 174.275 C 89.969 174.305,91.237 174.159,92.748 173.950 C 95.766 173.533,97.217 173.760,99.592 175.019 L 100.667 175.588 98.100 175.762 C 93.829 176.050,90.326 177.815,86.088 181.813 C 83.920 183.859,83.870 183.761,85.572 180.800 C 86.288 179.553,86.832 178.487,86.779 178.431 C 86.310 177.926,81.011 181.727,79.593 183.586 C 78.692 184.767,78.721 184.769,77.111 183.400 C 75.228 181.798,69.103 178.749,69.418 179.570 C 69.501 179.786,69.653 180.414,69.757 180.966 L 69.945 181.970 68.639 181.018 C 66.663 179.579,65.223 178.938,63.020 178.516 C 60.342 178.004,59.927 178.049,61.200 178.714 C 62.308 179.292,65.372 181.650,65.217 181.805 C 65.169 181.854,64.389 181.644,63.486 181.340 C 60.524 180.342,57.500 179.737,55.600 179.761 L 53.733 179.785 55.798 180.322 C 57.588 180.787,58.342 181.333,57.195 181.333 C 56.540 181.333,52.455 183.577,50.866 184.810 L 49.331 186.000 50.319 186.133 L 51.306 186.267 49.896 187.333 C 46.551 189.863,45.121 196.163,46.626 201.733 C 48.647 209.213,48.576 209.057,49.071 207.133 C 49.231 206.510,49.389 205.901,49.421 205.780 C 49.454 205.658,49.861 206.089,50.326 206.736 C 51.182 207.929,53.501 209.662,56.982 211.712 L 58.898 212.840 58.049 213.598 C 55.650 215.742,59.556 214.168,63.086 211.568 C 64.689 210.388,66.355 209.193,66.790 208.911 C 67.714 208.313,67.787 208.166,65.254 212.000 L 63.403 214.800 65.926 212.133 C 72.881 204.781,73.240 203.992,72.681 197.286 L 72.491 195.001 70.815 194.547 C 68.464 193.911,66.681 193.035,63.922 191.162 C 61.012 189.185,59.173 188.319,57.445 188.111 L 56.133 187.953 57.221 188.631 C 58.102 189.180,60.267 191.854,60.267 192.393 C 60.267 192.713,57.291 194.465,56.179 194.800 L 54.961 195.166 54.785 193.992 L 54.609 192.817 53.437 194.208 C 51.581 196.411,50.997 197.908,51.134 200.103 L 51.249 201.939 52.126 200.369 C 53.354 198.170,55.282 198.542,61.262 202.134 L 62.657 202.972 62.323 202.219 C 62.139 201.805,61.774 201.069,61.512 200.584 C 61.056 199.737,61.151 199.778,63.843 201.584 C 67.239 203.862,66.760 203.865,68.937 201.557 L 70.739 199.647 70.543 201.223 C 70.191 204.069,70.142 204.121,64.972 207.156 L 60.278 209.911 56.749 206.700 C 52.687 203.004,52.502 202.926,54.509 205.758 C 55.320 206.903,55.932 207.890,55.870 207.952 C 55.704 208.119,52.405 205.441,51.603 204.489 C 50.285 202.922,48.665 197.411,48.361 193.457 L 48.189 191.215 49.243 190.207 C 49.822 189.653,51.430 188.332,52.815 187.272 C 54.200 186.211,55.813 184.934,56.398 184.434 L 57.463 183.524 56.816 183.000 L 56.170 182.476 57.559 182.143 C 59.761 181.615,60.315 181.859,64.533 185.220 C 75.107 193.642,80.018 194.272,85.659 187.929 C 91.446 181.422,92.384 180.800,96.404 180.800 C 98.767 180.800,99.041 181.022,97.372 181.587 C 96.082 182.024,92.140 184.229,92.323 184.412 C 92.376 184.465,93.195 184.397,94.143 184.260 C 98.771 183.591,98.821 183.612,101.131 187.261 C 101.755 188.249,103.154 190.083,104.237 191.338 L 106.208 193.620 105.734 195.632 C 105.188 197.952,105.114 201.967,105.585 203.695 C 106.018 205.281,105.969 205.350,103.164 207.031 C 100.811 208.442,100.105 208.705,100.748 207.930 C 100.908 207.737,101.403 206.766,101.850 205.771 L 102.661 203.963 100.960 205.152 C 100.024 205.806,97.928 207.435,96.302 208.771 C 92.779 211.666,93.366 211.601,90.626 209.400 C 83.738 203.867,83.716 203.842,83.335 200.933 L 83.161 199.600 85.254 201.667 C 87.321 203.709,87.353 203.729,87.873 203.228 C 88.708 202.425,92.800 199.747,92.800 200.003 C 92.800 200.131,92.691 200.302,92.558 200.385 C 92.320 200.532,90.916 203.768,90.527 205.067 C 90.378 205.564,90.895 205.190,92.564 203.592 C 94.690 201.556,99.402 198.667,100.597 198.667 C 100.803 198.667,101.528 199.720,102.207 201.008 C 102.886 202.296,103.733 203.624,104.090 203.959 L 104.738 204.568 104.373 203.017 C 104.173 202.164,104.005 200.567,104.002 199.467 C 103.998 198.367,103.919 196.832,103.826 196.056 L 103.657 194.645 102.962 195.469 L 102.267 196.292 101.402 194.612 C 100.926 193.689,100.240 192.573,99.878 192.133 L 99.219 191.333 99.210 192.712 C 99.194 195.012,99.180 195.019,96.786 193.994 C 93.359 192.527,93.503 192.649,94.059 191.690 C 94.775 190.458,96.531 188.533,96.940 188.533 C 97.139 188.533,97.386 188.397,97.489 188.231 C 98.247 187.004,93.908 188.716,90.301 191.067 C 87.625 192.811,85.955 193.613,83.300 194.428 L 81.333 195.031 81.333 199.516 C 81.333 204.618,81.065 203.965,84.207 206.504 C 86.740 208.550,86.732 208.560,83.600 207.210 C 82.062 206.547,82.185 206.682,85.533 209.310 C 88.355 211.526,88.403 211.599,86.867 211.354 C 85.541 211.142,85.520 211.117,88.533 213.338 C 91.080 215.214,92.128 215.733,93.371 215.733 L 94.226 215.733 93.646 215.116 C 92.937 214.361,92.917 214.133,93.562 214.133 C 94.175 214.133,100.761 210.824,102.405 209.690 C 104.011 208.583,105.272 208.270,107.417 208.450 L 109.200 208.599 109.210 204.499 C 109.218 201.141,109.330 199.966,109.826 198.000 C 110.159 196.680,110.502 194.790,110.588 193.800 C 110.674 192.810,110.817 192.004,110.905 192.008 C 111.609 192.045,112.914 195.922,113.595 200.000 C 113.754 200.953,113.952 202.093,114.035 202.533 C 114.177 203.287,114.083 203.233,112.400 201.600 C 110.723 199.973,110.624 199.916,110.773 200.667 C 111.325 203.453,111.535 212.267,111.049 212.267 C 111.000 212.267,110.444 211.919,109.813 211.495 C 108.761 210.787,106.273 209.867,105.410 209.867 C 105.196 209.867,105.478 210.435,106.106 211.267 C 107.057 212.526,108.800 215.949,108.800 216.556 C 108.800 216.688,108.268 216.390,107.617 215.893 C 105.375 214.182,99.044 213.382,97.777 214.650 C 97.577 214.850,97.607 214.933,97.880 214.934 C 98.960 214.934,101.610 216.535,102.046 217.451 C 102.630 218.676,102.426 218.827,101.098 218.149 C 98.202 216.672,94.067 216.584,86.800 217.845 C 83.267 218.458,81.867 218.660,81.867 218.555 C 81.867 218.512,82.453 217.889,83.170 217.171 C 84.754 215.586,85.324 214.068,84.765 212.927 C 84.410 212.204,81.067 209.922,81.067 210.404 C 81.067 211.029,81.740 211.936,82.705 212.610 C 84.141 213.613,83.974 214.083,81.918 214.822 C 79.448 215.711,78.892 216.561,79.743 218.151 C 80.006 218.643,79.909 218.667,77.609 218.667 L 75.200 218.667 75.200 217.784 C 75.200 216.531,74.695 215.991,72.930 215.356 C 70.799 214.589,70.611 214.199,71.563 212.507 C 72.121 211.515,72.246 211.072,72.029 210.856 C 71.813 210.639,71.733 210.666,71.733 210.957 C 71.733 211.175,71.133 211.944,70.400 212.667 C 68.709 214.332,68.627 215.164,70.033 216.371 C 70.564 216.827,71.374 217.526,71.833 217.926 L 72.667 218.651 67.560 218.659 C 59.796 218.671,54.869 219.659,52.122 221.756 C 49.523 223.739,50.473 220.818,53.311 218.097 L 55.435 216.060 54.617 215.897 C 54.168 215.807,53.215 215.733,52.500 215.733 C 50.950 215.733,50.945 215.709,52.127 213.854 C 52.636 213.054,53.056 212.313,53.060 212.207 C 53.066 212.045,50.024 213.048,48.480 213.717 C 47.931 213.955,47.613 213.277,46.111 208.667 C 45.537 206.907,44.566 204.244,43.953 202.750 L 42.839 200.034 43.328 195.348 C 43.902 189.849,44.025 190.165,41.782 191.356 C 40.802 191.876,40.000 192.239,40.000 192.162 C 40.000 190.826,45.658 181.488,49.879 175.856 C 54.355 169.885,58.988 167.158,66.791 165.900 L 69.733 165.426 68.267 165.079 C 65.454 164.413,65.576 164.238,69.311 163.579 C 72.081 163.091,74.083 163.282,80.636 164.665 M117.212 174.957 C 117.778 176.051,117.640 176.305,115.816 177.542 C 112.226 179.978,110.133 180.647,110.133 179.359 C 110.133 178.553,115.479 174.133,116.454 174.133 C 116.637 174.133,116.978 174.504,117.212 174.957 M41.999 176.265 C 42.573 177.398,43.284 179.739,43.107 179.915 C 43.051 179.972,41.994 179.720,38.862 178.905 L 37.857 178.644 38.701 177.388 C 40.707 174.406,41.006 174.304,41.999 176.265 M39.012 180.560 C 41.013 180.988,40.991 180.904,39.879 183.934 C 38.123 188.718,36.424 195.446,36.861 195.883 C 36.938 195.961,37.801 195.704,38.779 195.312 C 41.040 194.407,41.055 194.435,39.891 197.345 C 38.716 200.280,37.935 204.560,37.690 209.406 L 37.513 212.888 36.867 212.111 C 35.615 210.603,35.405 209.706,35.259 205.210 C 35.105 200.474,34.939 200.449,34.164 205.042 L 33.696 207.818 33.088 206.835 C 32.070 205.187,32.109 200.876,33.225 191.733 C 33.957 185.738,35.895 179.784,37.011 180.100 C 37.262 180.171,38.162 180.378,39.012 180.560 M120.601 181.267 C 123.152 185.980,125.171 204.231,123.421 206.764 L 122.709 207.795 122.540 206.498 C 122.447 205.784,122.172 204.300,121.929 203.200 L 121.487 201.200 121.273 205.200 C 121.044 209.457,120.673 210.992,119.635 211.967 L 119.017 212.548 118.823 208.741 C 118.411 200.645,118.285 200.845,116.935 211.733 C 115.782 221.041,115.577 221.975,114.667 222.069 C 113.485 222.192,113.235 221.818,113.721 220.655 C 114.411 219.004,114.932 215.360,114.954 212.032 L 114.975 208.933 115.467 210.267 L 115.959 211.600 115.979 207.451 C 116.002 202.865,115.600 200.627,114.097 196.976 L 113.312 195.067 114.117 196.000 C 114.560 196.513,115.299 197.653,115.758 198.533 L 116.593 200.133 116.449 196.793 C 116.366 194.869,116.132 192.951,115.898 192.270 C 115.415 190.868,115.493 190.714,116.392 191.303 C 116.763 191.547,117.067 191.671,117.067 191.579 C 117.067 191.149,114.872 186.810,113.529 184.586 C 112.058 182.149,111.968 181.490,113.170 181.951 C 113.849 182.212,116.672 186.768,117.826 189.467 C 118.454 190.933,119.081 192.373,119.221 192.667 C 119.584 193.430,119.331 186.378,118.929 184.533 C 118.753 183.727,118.336 182.514,118.002 181.839 L 117.395 180.612 118.364 180.340 C 119.863 179.918,119.873 179.922,120.601 181.267 M33.649 182.841 C 30.700 188.636,29.586 203.080,31.193 214.667 C 31.488 216.793,31.730 218.613,31.731 218.710 C 31.735 219.044,30.107 218.273,29.546 217.676 C 28.823 216.906,28.075 210.865,27.823 203.767 C 27.542 195.847,26.185 200.503,25.151 212.933 C 24.901 215.941,24.756 215.898,22.980 212.296 C 20.713 207.698,20.168 205.311,20.174 200.000 C 20.179 194.181,21.337 185.748,22.257 184.828 C 22.976 184.110,23.014 184.748,22.421 187.560 C 21.939 189.846,20.516 199.740,20.644 199.918 C 20.743 200.057,26.483 200.539,26.603 200.419 C 26.679 200.343,26.966 198.807,27.241 197.007 C 27.905 192.651,29.589 184.477,29.900 184.097 C 30.036 183.931,30.936 183.391,31.899 182.897 C 32.862 182.404,33.711 181.902,33.785 181.782 C 34.200 181.113,34.089 181.975,33.649 182.841 M124.980 183.164 C 125.886 183.617,126.690 184.200,126.768 184.460 C 127.078 185.499,128.585 193.112,129.077 196.127 C 129.724 200.093,129.724 200.759,129.076 199.333 L 128.592 198.267 128.725 200.800 C 128.873 203.613,127.897 215.192,127.379 216.772 C 127.153 217.462,126.755 217.895,125.933 218.348 C 124.568 219.101,124.618 219.467,125.333 214.000 C 126.830 202.549,125.915 190.233,123.063 183.457 C 122.276 181.588,122.250 181.385,122.867 181.929 C 123.123 182.155,124.074 182.711,124.980 183.164 M134.356 184.880 C 135.585 186.361,136.783 201.004,136.007 205.067 C 135.408 208.203,132.420 215.467,131.728 215.467 C 131.627 215.467,131.472 214.657,131.383 213.667 C 131.027 209.686,130.125 202.478,129.875 201.618 C 129.542 200.469,129.269 200.601,132.653 200.280 C 134.246 200.129,135.604 199.951,135.671 199.884 C 135.999 199.556,134.047 186.541,133.427 184.927 C 133.238 184.434,133.956 184.398,134.356 184.880 M63.533 194.022 C 63.619 194.108,63.459 194.408,63.178 194.689 C 62.515 195.351,62.469 197.733,63.102 198.636 C 64.546 200.698,68.800 200.140,68.800 197.887 C 68.800 197.151,69.033 197.197,70.067 198.137 C 71.160 199.132,71.266 198.873,68.920 200.919 L 66.907 202.675 63.187 199.838 C 60.823 198.035,59.467 196.825,59.467 196.518 C 59.467 195.698,63.025 193.514,63.533 194.022 M92.700 194.850 C 95.295 196.368,95.357 196.220,90.474 200.201 C 87.023 203.014,87.400 202.971,85.011 200.820 L 82.955 198.970 83.921 198.121 L 84.888 197.272 85.251 198.183 C 85.951 199.937,88.497 200.601,89.996 199.422 C 91.426 198.297,91.884 196.069,90.933 194.861 C 89.885 193.527,90.434 193.524,92.700 194.850 M74.072 196.073 C 75.047 198.830,75.040 201.680,74.052 203.832 C 73.161 205.773,73.160 205.759,74.137 205.064 C 76.986 203.035,76.807 195.974,73.867 194.400 C 73.446 194.175,73.470 194.369,74.072 196.073 M79.205 195.154 C 77.203 197.156,77.445 202.872,79.612 204.775 C 80.724 205.751,81.007 205.825,80.474 205.000 C 78.855 202.492,78.825 198.621,80.395 194.867 C 80.697 194.145,80.060 194.299,79.205 195.154 M40.496 200.274 C 40.156 201.751,40.142 205.770,40.474 206.657 L 40.720 207.314 41.060 206.657 C 41.247 206.296,41.645 205.731,41.944 205.403 L 42.488 204.805 43.475 207.423 C 44.019 208.862,44.957 211.137,45.560 212.477 C 46.164 213.818,46.916 215.849,47.232 216.990 C 47.547 218.132,47.853 219.235,47.910 219.441 C 47.972 219.664,48.360 219.287,48.869 218.507 C 49.885 216.954,50.155 217.532,49.606 220.081 C 48.126 226.950,49.327 237.245,52.457 244.509 L 52.964 245.685 52.854 243.954 C 52.669 241.048,52.917 241.058,53.841 243.996 C 55.127 248.081,57.712 252.562,60.824 256.097 C 61.422 256.777,61.788 257.333,61.635 257.333 C 61.105 257.333,57.514 253.453,56.209 251.470 C 54.708 249.189,54.544 248.994,54.747 249.733 C 54.828 250.027,54.977 250.687,55.080 251.200 L 55.267 252.133 54.673 251.601 C 49.548 247.005,45.866 231.507,47.894 223.067 C 48.066 222.349,48.041 222.303,47.651 222.626 C 47.267 222.943,47.163 222.850,46.757 221.826 C 46.504 221.188,45.835 219.827,45.271 218.800 C 42.592 213.923,41.676 211.269,41.928 209.112 L 42.035 208.194 41.484 208.839 C 41.181 209.194,40.736 209.780,40.496 210.142 C 39.886 211.060,39.814 210.893,39.467 207.733 C 39.107 204.468,39.311 201.678,40.029 200.025 C 40.658 198.579,40.861 198.687,40.496 200.274 M78.029 206.555 C 77.940 206.787,77.873 208.017,77.882 209.288 L 77.897 211.600 78.439 209.867 C 79.149 207.599,79.048 207.646,81.200 208.576 C 82.227 209.020,83.367 209.498,83.733 209.639 L 84.400 209.896 83.867 209.360 C 82.223 207.707,78.308 205.826,78.029 206.555 M73.636 207.066 C 72.258 207.861,70.330 209.352,70.483 209.505 C 70.542 209.564,71.585 209.187,72.800 208.667 C 74.015 208.146,75.040 207.754,75.078 207.794 C 75.115 207.834,75.394 208.647,75.697 209.600 L 76.249 211.333 76.191 208.933 C 76.123 206.116,75.752 205.844,73.636 207.066 M94.430 219.735 C 99.849 220.746,102.572 224.627,103.287 232.357 C 103.436 233.970,103.251 233.767,101.993 230.933 C 99.280 224.821,98.344 224.513,86.933 225.983 C 78.291 227.097,74.117 227.161,69.067 226.259 C 57.079 224.118,51.916 226.209,51.169 233.509 C 50.833 236.797,50.763 236.847,50.524 233.977 C 49.951 227.096,51.155 224.033,55.157 222.194 C 58.237 220.778,58.548 220.746,71.467 220.511 C 79.796 220.359,84.311 220.171,85.867 219.909 C 88.608 219.449,92.474 219.370,94.430 219.735 M92.814 228.150 C 93.097 228.491,92.935 230.667,92.627 230.667 C 92.557 230.667,91.902 230.471,91.171 230.232 C 90.136 229.893,89.415 229.843,87.920 230.006 C 86.864 230.121,84.614 230.188,82.920 230.155 C 80.561 230.109,79.580 230.199,78.731 230.539 C 77.803 230.910,77.464 230.930,76.645 230.659 C 75.481 230.275,73.597 230.481,72.536 231.107 C 71.894 231.487,71.663 231.502,70.963 231.212 C 70.464 231.005,69.764 230.943,69.176 231.054 C 68.630 231.156,67.638 231.088,66.896 230.898 C 65.893 230.641,65.317 230.632,64.460 230.861 C 63.098 231.224,63.103 231.229,63.083 229.661 L 63.067 228.400 64.933 228.033 C 66.518 227.722,67.324 227.722,70.267 228.033 C 74.457 228.477,89.506 228.183,90.042 227.647 C 90.252 227.437,92.571 227.858,92.814 228.150 M55.479 234.285 C 61.848 249.930,66.617 254.133,78.000 254.133 C 88.611 254.133,94.280 249.519,100.026 236.207 C 101.536 232.708,101.467 232.789,101.875 234.025 C 102.751 236.680,101.586 241.788,99.387 244.934 C 90.439 257.736,86.288 260.819,78.000 260.819 C 70.114 260.819,66.744 258.935,60.864 251.238 C 54.999 243.559,53.067 239.121,53.067 233.327 C 53.067 229.125,53.439 229.273,55.479 234.285 M76.510 231.942 C 77.148 232.417,77.206 232.632,77.278 234.807 C 77.382 237.974,77.567 237.792,74.513 237.546 C 71.213 237.280,71.115 237.119,72.040 233.503 C 72.613 231.265,74.648 230.554,76.510 231.942 M82.337 231.612 C 82.985 232.067,83.659 234.099,83.787 235.984 C 83.880 237.370,83.605 237.491,80.004 237.642 L 78.000 237.727 77.924 235.179 C 77.841 232.380,77.972 232.093,79.600 231.523 C 80.765 231.114,81.668 231.144,82.337 231.612 M66.911 232.200 C 67.358 232.566,67.532 233.129,67.723 234.817 C 67.856 236.000,68.155 237.787,68.388 238.790 C 68.931 241.132,68.847 241.168,67.078 239.357 C 65.421 237.659,65.000 236.948,64.117 234.352 L 63.501 232.540 64.076 232.137 C 64.848 231.596,66.210 231.626,66.911 232.200 M70.667 232.524 C 71.367 233.028,71.372 233.072,71.045 235.776 C 70.756 238.163,68.764 238.222,68.439 235.853 C 67.899 231.911,68.522 230.980,70.667 232.524 M86.936 232.136 C 87.467 232.776,87.145 236.519,86.520 236.976 C 85.362 237.823,84.617 237.453,84.422 235.933 C 84.322 235.163,84.173 234.094,84.090 233.558 C 83.871 232.135,86.037 231.053,86.936 232.136 M91.781 232.462 L 92.330 233.012 91.377 234.994 C 90.536 236.743,87.079 241.035,86.765 240.721 C 86.711 240.666,86.911 239.672,87.210 238.511 C 87.513 237.337,87.767 235.453,87.783 234.267 C 87.799 233.048,87.937 232.043,88.105 231.922 C 88.677 231.511,91.201 231.882,91.781 232.462 M84.633 238.919 C 86.230 239.290,86.270 239.421,85.604 242.118 C 84.873 245.076,85.177 244.901,81.176 244.670 C 77.441 244.455,77.627 244.612,78.161 242.119 C 78.576 240.184,79.568 239.149,81.230 238.919 C 83.136 238.654,83.492 238.654,84.633 238.919 M75.185 239.572 C 76.365 239.999,77.064 240.949,77.359 242.530 C 77.726 244.491,77.577 244.595,74.215 244.724 C 70.828 244.854,70.968 244.938,70.154 242.267 C 69.841 241.240,69.523 240.198,69.447 239.952 C 69.222 239.221,73.439 238.942,75.185 239.572 M90.407 242.984 C 89.370 247.862,88.731 248.721,86.377 248.397 C 84.814 248.182,84.794 248.102,86.009 246.925 C 87.088 245.879,89.253 242.813,90.117 241.107 C 90.983 239.398,91.061 239.905,90.407 242.984 M66.217 242.733 C 66.880 243.797,68.038 245.370,68.790 246.230 C 70.271 247.922,70.327 248.221,69.260 248.742 C 67.285 249.705,66.124 247.787,64.976 241.667 C 64.749 240.456,64.853 240.546,66.217 242.733 M77.355 245.480 C 77.740 245.718,77.530 247.842,77.067 248.400 C 76.155 249.499,74.281 248.660,73.973 247.015 C 73.621 245.138,75.455 244.306,77.355 245.480 M73.007 245.291 C 73.861 245.833,73.728 248.170,72.825 248.485 C 71.454 248.963,70.667 248.252,70.667 246.535 C 70.667 245.381,72.018 244.663,73.007 245.291 M81.180 246.223 C 81.510 248.424,79.643 249.897,78.409 248.410 C 77.179 246.928,77.984 245.067,79.855 245.067 L 81.006 245.067 81.180 246.223 M84.143 245.441 C 85.565 246.480,84.485 248.898,82.667 248.745 L 81.733 248.667 81.741 247.119 C 81.750 245.138,82.762 244.431,84.143 245.441 M79.921 249.600 C 88.175 249.600,88.386 249.648,85.830 250.952 C 82.368 252.718,69.888 252.110,68.656 250.116 C 68.485 249.840,71.280 249.322,71.955 249.504 C 72.150 249.557,75.735 249.600,79.921 249.600 " stroke="none" fill="#060606" fill-rule="evenodd"></path><path id="path1" d="M214.029 153.614 C 203.392 154.863,196.254 165.786,199.699 175.540 C 206.132 193.755,233.711 189.479,233.711 170.267 C 233.711 159.782,224.911 152.336,214.029 153.614 M160.000 170.267 L 160.000 186.400 164.530 186.400 L 169.059 186.400 169.130 177.553 L 169.200 168.707 173.049 174.620 C 175.165 177.872,177.029 180.533,177.190 180.533 C 177.351 180.533,179.220 177.871,181.342 174.617 L 185.200 168.700 185.270 177.550 L 185.341 186.400 189.870 186.400 L 194.400 186.400 194.400 170.261 L 194.400 154.121 189.574 154.194 L 184.749 154.267 181.108 160.192 C 179.105 163.451,177.393 166.121,177.303 166.125 C 177.213 166.130,175.482 163.433,173.458 160.133 L 169.777 154.133 164.888 154.133 L 160.000 154.133 160.000 170.267 M238.133 170.267 L 238.133 186.400 242.663 186.400 L 247.193 186.400 247.263 177.827 L 247.333 169.253 253.998 177.827 L 260.663 186.400 264.731 186.400 L 268.800 186.400 268.800 170.267 L 268.800 154.133 264.270 154.133 L 259.741 154.133 259.670 162.364 L 259.600 170.595 253.202 162.364 L 246.804 154.133 242.469 154.133 L 238.133 154.133 238.133 170.267 M274.133 170.267 L 274.133 186.400 278.800 186.400 L 283.467 186.400 283.467 182.274 L 283.467 178.148 284.997 176.454 L 286.527 174.759 287.484 176.126 C 288.011 176.878,289.790 179.497,291.439 181.946 L 294.435 186.400 300.040 186.400 L 305.645 186.400 304.732 185.133 C 303.728 183.742,294.231 169.903,293.485 168.744 L 293.019 168.021 298.853 161.410 C 302.062 157.775,304.780 154.650,304.893 154.467 C 305.055 154.204,303.941 154.133,299.656 154.133 L 294.214 154.133 288.907 160.401 L 283.600 166.669 283.529 160.401 L 283.457 154.133 278.795 154.133 L 274.133 154.133 274.133 170.267 M307.733 170.267 L 307.733 186.400 320.933 186.400 L 334.133 186.400 334.133 182.533 L 334.133 178.667 325.600 178.667 L 317.067 178.667 317.067 176.267 L 317.067 173.867 324.667 173.867 L 332.267 173.867 332.267 170.267 L 332.267 166.667 324.667 166.667 L 317.067 166.667 317.067 164.267 L 317.067 161.867 325.600 161.867 L 334.133 161.867 334.133 158.000 L 334.133 154.133 320.933 154.133 L 307.733 154.133 307.733 170.267 M340.046 161.667 C 342.560 165.810,345.318 170.356,346.175 171.769 L 347.733 174.339 347.733 180.369 L 347.733 186.400 352.400 186.400 L 357.067 186.400 357.068 180.333 L 357.069 174.267 362.692 165.067 C 365.784 160.007,368.554 155.477,368.846 155.000 L 369.377 154.133 364.183 154.133 L 358.990 154.133 355.829 159.733 C 354.090 162.813,352.590 165.333,352.496 165.333 C 352.402 165.333,350.907 162.813,349.175 159.733 L 346.024 154.133 340.750 154.133 L 335.475 154.133 340.046 161.667 M219.697 162.509 C 227.456 166.570,224.982 178.813,216.410 178.777 C 207.578 178.740,205.227 165.424,213.495 162.269 C 214.898 161.733,218.480 161.872,219.697 162.509 " stroke="none" fill="#c49c1c" fill-rule="evenodd"></path><path id="path2" d="M69.467 138.855 C 54.406 140.896,43.061 147.512,34.803 159.071 C 29.608 166.343,23.398 184.762,22.532 195.467 C 22.443 196.567,22.317 197.727,22.252 198.046 C 22.156 198.514,22.290 198.659,22.953 198.804 C 24.029 199.041,23.911 199.324,24.678 194.642 C 25.718 188.291,28.416 176.908,29.050 176.199 C 29.148 176.088,28.892 178.188,28.480 180.865 C 27.712 185.846,27.601 187.954,28.243 185.333 C 34.555 159.571,48.402 146.492,71.172 144.786 C 97.213 142.835,113.896 150.741,122.691 169.200 C 125.482 175.059,129.415 188.508,130.521 195.977 C 130.979 199.069,130.956 199.011,131.661 198.888 C 132.888 198.675,129.338 182.877,126.098 174.133 C 119.778 157.079,111.597 148.916,95.067 143.171 C 91.431 141.908,92.308 141.847,97.067 143.033 C 102.737 144.446,107.976 146.581,112.193 149.197 C 114.438 150.589,112.756 149.209,109.467 146.959 C 103.507 142.883,97.769 140.713,88.965 139.208 C 85.967 138.696,72.450 138.451,69.467 138.855 M68.577 163.869 C 66.071 164.323,66.055 164.361,68.130 164.922 C 70.077 165.450,70.389 165.867,68.835 165.867 C 63.734 165.867,55.985 169.020,52.898 172.353 C 49.012 176.546,40.267 190.069,40.267 191.884 C 40.267 191.975,41.061 191.612,42.032 191.079 C 43.003 190.545,43.848 190.159,43.911 190.222 C 44.031 190.342,43.599 194.999,43.210 197.778 C 42.940 199.708,43.092 200.443,44.371 203.410 C 44.895 204.626,45.579 206.486,45.891 207.544 C 46.202 208.601,46.823 210.450,47.269 211.653 L 48.081 213.838 48.892 213.419 C 49.573 213.067,53.232 211.733,53.518 211.733 C 53.567 211.733,53.112 212.519,52.506 213.479 C 51.193 215.558,51.080 215.374,53.839 215.646 L 56.073 215.867 54.459 217.134 C 52.300 218.828,51.309 220.134,51.072 221.600 L 50.877 222.800 51.772 221.948 C 54.110 219.721,58.431 218.703,66.490 218.481 L 72.046 218.328 70.423 216.821 C 68.388 214.933,68.357 214.498,70.132 212.751 C 70.864 212.031,71.537 211.147,71.627 210.789 C 71.717 210.430,71.897 210.203,72.028 210.284 C 72.482 210.565,72.263 211.750,71.562 212.809 C 70.760 214.021,71.039 214.703,72.486 215.063 C 74.580 215.585,75.801 216.952,75.312 218.226 C 75.165 218.610,75.376 218.664,76.971 218.648 C 79.187 218.625,79.816 218.428,79.461 217.867 C 78.650 216.584,79.362 215.519,81.494 214.826 C 82.242 214.583,83.070 214.225,83.334 214.032 C 83.870 213.640,84.011 213.840,81.953 212.064 C 81.441 211.623,81.032 210.963,80.921 210.400 L 80.738 209.467 81.369 210.031 C 81.716 210.341,82.573 210.924,83.273 211.326 C 85.820 212.791,85.662 215.226,82.862 217.667 C 81.825 218.570,81.870 218.571,86.547 217.735 C 92.836 216.610,96.948 216.547,99.800 217.531 C 103.291 218.736,102.586 216.792,99.063 215.500 C 98.185 215.178,97.287 214.840,97.067 214.748 C 96.381 214.462,100.836 213.839,102.800 213.947 C 104.668 214.049,106.257 214.641,107.707 215.774 C 108.060 216.049,108.397 216.225,108.458 216.165 C 108.648 215.975,106.492 211.913,105.624 210.826 C 105.167 210.253,104.844 209.734,104.907 209.671 C 105.169 209.409,108.498 210.475,109.665 211.195 L 110.929 211.975 111.104 211.280 C 111.300 210.499,111.005 203.585,110.679 201.333 C 110.394 199.360,110.462 199.357,112.300 201.259 L 113.896 202.911 113.724 201.655 C 113.364 199.024,112.187 194.224,111.652 193.201 L 111.094 192.133 110.864 193.600 C 110.737 194.407,110.341 196.401,109.984 198.032 C 109.462 200.413,109.333 201.756,109.333 204.842 L 109.333 208.687 106.731 208.677 L 104.129 208.667 102.531 209.755 C 100.712 210.994,94.044 214.400,93.438 214.400 C 93.177 214.400,93.298 214.625,93.785 215.044 L 94.533 215.689 93.867 215.856 C 92.779 216.130,91.075 215.338,88.119 213.183 C 84.949 210.873,84.942 210.864,86.441 211.104 C 87.893 211.336,87.767 211.174,84.543 208.661 C 81.537 206.318,81.399 206.082,83.608 207.059 C 85.658 207.966,85.655 207.821,83.591 206.146 C 80.992 204.037,81.066 204.234,81.071 199.474 C 81.075 194.735,81.032 194.861,82.791 194.425 C 84.948 193.890,87.524 192.683,90.518 190.803 C 94.182 188.503,95.461 187.949,96.872 188.052 L 98.000 188.133 96.900 188.722 C 95.725 189.350,93.623 192.143,94.037 192.527 C 94.261 192.735,98.573 194.667,98.813 194.667 C 98.879 194.667,98.933 193.887,98.933 192.933 C 98.933 191.980,99.023 191.202,99.133 191.204 C 99.435 191.210,101.234 193.745,101.784 194.938 C 102.370 196.211,102.407 196.217,103.031 195.132 L 103.529 194.267 103.776 194.920 C 103.912 195.280,104.095 197.140,104.183 199.054 C 104.272 200.968,104.495 203.043,104.679 203.667 C 105.326 205.853,104.080 204.652,102.258 201.333 C 101.574 200.087,100.921 198.968,100.807 198.847 C 100.260 198.265,94.372 201.825,91.951 204.201 L 90.169 205.951 90.441 204.879 C 90.590 204.290,91.100 203.011,91.572 202.037 C 92.045 201.063,92.404 200.267,92.369 200.267 C 92.300 200.267,88.736 202.682,87.839 203.337 C 87.307 203.725,87.181 203.656,85.340 201.951 L 83.401 200.156 83.598 201.612 C 83.871 203.630,83.896 203.663,87.404 206.591 C 93.399 211.596,93.101 211.393,93.648 210.850 C 95.300 209.209,102.345 203.856,102.564 204.075 C 102.642 204.153,102.289 205.119,101.780 206.221 L 100.854 208.226 102.893 207.027 C 105.812 205.311,105.770 205.371,105.387 203.520 C 104.922 201.269,104.997 198.041,105.570 195.646 L 106.070 193.559 103.878 191.056 C 102.672 189.680,101.096 187.573,100.376 186.376 L 99.067 184.198 96.000 184.361 C 94.313 184.450,92.645 184.605,92.292 184.704 C 90.517 185.202,94.118 182.786,96.785 181.689 L 98.267 181.079 96.100 181.073 C 92.281 181.062,90.993 181.832,87.231 186.376 C 80.568 194.427,76.060 194.354,65.384 186.023 C 60.201 181.979,60.300 182.032,58.335 182.210 C 56.454 182.381,56.278 182.504,57.027 183.127 C 57.637 183.634,56.436 184.780,50.933 188.938 C 48.419 190.839,48.489 190.695,48.635 193.600 C 48.962 200.111,50.827 204.197,54.792 207.094 L 55.850 207.867 54.296 205.651 C 51.888 202.220,52.272 202.436,58.094 207.795 C 60.492 210.004,59.713 210.101,65.068 206.925 C 70.200 203.881,69.864 204.212,70.280 201.788 L 70.595 199.951 68.688 201.846 L 66.781 203.740 64.097 201.920 L 61.414 200.100 62.180 201.555 C 63.182 203.460,63.227 203.460,59.813 201.512 C 57.346 200.104,53.419 198.448,53.204 198.724 C 53.172 198.766,52.677 199.640,52.106 200.667 L 51.067 202.533 50.990 200.207 C 50.903 197.582,51.076 197.091,52.946 194.655 C 54.739 192.318,54.933 192.227,54.933 193.722 L 54.933 194.976 55.800 194.795 C 56.675 194.613,58.574 193.628,59.652 192.797 L 60.237 192.347 59.547 191.307 C 58.483 189.701,57.815 189.036,56.800 188.566 L 55.867 188.134 57.154 188.051 C 58.751 187.949,60.953 188.919,64.004 191.069 C 66.496 192.826,68.568 193.824,70.933 194.408 L 72.667 194.836 72.745 198.951 C 72.862 205.045,72.767 205.229,65.767 212.400 L 62.903 215.333 64.737 212.533 C 67.129 208.880,67.098 208.935,66.641 209.209 C 66.435 209.332,64.794 210.486,62.994 211.773 C 59.119 214.541,55.853 215.810,57.818 213.784 L 58.673 212.901 55.397 210.876 C 53.467 209.684,51.592 208.286,50.834 207.475 C 50.125 206.718,49.520 206.136,49.488 206.183 C 49.456 206.229,49.283 206.777,49.104 207.400 C 48.614 209.105,48.466 208.876,47.209 204.467 C 44.920 196.440,45.637 190.991,49.431 187.586 L 51.067 186.118 49.867 186.293 C 48.476 186.496,48.482 186.488,51.067 184.530 C 52.093 183.752,53.949 182.628,55.190 182.031 L 57.447 180.946 56.257 180.631 C 55.602 180.458,54.707 180.231,54.267 180.127 C 53.549 179.958,53.521 179.917,54.000 179.722 C 55.318 179.185,59.760 179.874,63.442 181.187 C 64.088 181.417,64.663 181.559,64.721 181.502 C 64.935 181.287,62.502 179.568,60.817 178.745 C 58.853 177.785,59.114 177.703,62.424 178.241 C 64.842 178.633,66.258 179.222,68.333 180.698 C 69.708 181.676,69.945 181.474,69.328 179.854 C 69.068 179.168,69.086 179.147,69.795 179.315 C 71.281 179.669,75.542 181.969,77.056 183.234 L 78.611 184.533 79.460 183.567 C 81.519 181.222,84.742 178.842,86.636 178.267 C 87.316 178.061,87.165 178.411,84.972 182.133 C 84.450 183.020,84.498 182.998,85.951 181.681 C 90.655 177.415,94.584 175.547,99.067 175.447 L 100.133 175.423 98.667 174.753 C 96.757 173.881,95.093 173.742,92.067 174.204 C 90.710 174.411,89.600 174.486,89.600 174.370 C 89.600 174.064,92.632 172.685,94.867 171.976 C 97.252 171.218,97.252 171.168,94.886 170.558 C 91.787 169.760,88.735 170.139,84.547 171.840 C 83.610 172.221,82.808 172.497,82.764 172.453 C 82.554 172.243,86.001 168.773,87.328 167.859 C 89.115 166.627,89.272 166.743,84.267 165.603 C 74.844 163.458,72.362 163.184,68.577 163.869 M114.737 175.193 C 111.960 176.955,109.916 179.097,110.477 179.658 C 111.017 180.198,112.634 179.518,115.796 177.422 L 117.592 176.231 117.196 175.283 C 116.978 174.761,116.800 174.290,116.800 174.234 C 116.800 173.974,116.271 174.220,114.737 175.193 M39.872 176.058 C 39.331 176.686,38.721 177.519,38.517 177.908 L 38.146 178.616 40.201 179.073 C 41.331 179.324,42.421 179.594,42.624 179.672 C 43.091 179.851,42.852 178.574,42.075 176.742 C 41.255 174.808,41.014 174.733,39.872 176.058 M35.902 181.533 C 33.641 186.009,31.544 203.713,32.953 206.438 C 33.503 207.501,33.585 207.373,34.038 204.750 C 34.979 199.306,35.263 199.448,35.481 205.469 C 35.646 210.021,35.665 210.137,36.420 211.257 L 37.190 212.400 37.527 208.533 C 38.045 202.592,38.500 200.504,40.245 196.072 L 40.794 194.677 39.397 195.232 C 36.871 196.236,36.727 196.283,36.584 196.140 C 36.272 195.827,37.712 190.004,39.171 185.679 L 40.718 181.091 38.906 180.679 C 36.496 180.131,36.630 180.092,35.902 181.533 M118.451 180.493 C 117.748 180.691,117.746 180.712,118.303 182.045 C 119.042 183.815,119.472 186.463,119.638 190.267 C 119.810 194.207,119.670 194.519,118.804 192.133 C 117.647 188.943,115.667 185.276,113.557 182.415 C 112.426 180.883,112.270 182.203,113.370 184.000 C 114.570 185.961,116.897 190.483,117.189 191.419 C 117.378 192.027,117.367 192.031,116.600 191.635 L 115.819 191.231 116.180 192.615 C 116.658 194.449,116.980 200.267,116.603 200.267 C 116.450 200.267,116.256 199.997,116.173 199.667 C 115.996 198.967,114.423 196.421,114.265 196.579 C 114.206 196.638,114.444 197.473,114.793 198.436 C 116.092 202.013,116.700 207.903,116.087 210.967 L 115.906 211.867 115.565 211.067 C 115.245 210.315,115.223 210.382,115.212 212.181 C 115.195 214.866,114.731 217.954,114.027 220.067 L 113.427 221.867 114.401 221.867 L 115.374 221.867 115.817 219.000 C 116.061 217.423,116.626 213.073,117.075 209.333 C 117.866 202.730,118.032 201.676,118.250 201.895 C 118.528 202.175,118.939 206.549,118.953 209.372 C 118.970 212.794,119.061 212.920,120.162 211.041 C 120.829 209.904,120.872 209.608,121.004 205.196 C 121.081 202.640,121.233 200.605,121.342 200.672 C 121.605 200.835,122.360 203.984,122.619 206.000 L 122.826 207.600 123.447 206.410 C 124.943 203.546,122.794 185.466,120.458 181.267 C 119.904 180.271,119.623 180.163,118.451 180.493 M33.474 182.122 C 33.375 182.281,32.579 182.773,31.704 183.215 C 30.810 183.666,30.007 184.276,29.870 184.609 C 29.417 185.707,27.864 193.769,27.084 199.067 C 26.977 199.796,27.011 199.772,27.464 198.800 L 27.960 197.733 27.985 202.000 C 28.013 206.710,28.857 216.049,29.354 217.139 C 29.743 217.993,31.288 218.848,31.415 218.280 C 31.460 218.079,31.310 216.674,31.083 215.157 C 29.349 203.609,30.309 190.118,33.354 183.225 C 33.827 182.155,33.907 181.421,33.474 182.122 M123.505 184.328 C 126.297 191.979,126.996 203.546,125.361 215.067 C 124.797 219.046,124.769 218.889,125.921 218.218 C 127.516 217.289,128.350 212.046,128.383 202.734 C 128.392 200.058,128.426 197.868,128.458 197.867 C 128.490 197.867,128.706 198.197,128.939 198.600 L 129.361 199.333 129.210 198.133 C 128.970 196.239,127.771 189.724,127.123 186.804 L 126.533 184.144 124.693 183.139 C 123.681 182.586,122.819 182.133,122.778 182.133 C 122.737 182.133,123.064 183.121,123.505 184.328 M21.871 185.852 C 19.408 194.998,19.920 205.789,23.124 212.267 L 24.641 215.333 24.835 213.733 C 24.941 212.853,25.276 209.954,25.578 207.290 C 25.881 204.626,26.253 202.119,26.405 201.720 C 26.779 200.736,26.792 200.741,23.464 200.440 C 20.657 200.186,20.533 200.149,20.533 199.559 C 20.533 198.361,21.881 189.169,22.375 187.000 C 22.912 184.642,22.468 183.632,21.871 185.852 M133.715 185.488 C 134.450 188.415,136.000 198.321,136.000 200.088 C 136.000 200.158,134.756 200.300,133.235 200.404 C 129.864 200.634,129.708 200.708,130.099 201.902 C 130.262 202.396,130.573 204.480,130.792 206.533 C 131.010 208.587,131.308 211.167,131.453 212.267 C 131.598 213.367,131.727 214.507,131.739 214.800 C 131.834 217.124,135.550 207.364,136.003 203.600 C 136.657 198.176,135.109 184.800,133.828 184.800 C 133.654 184.800,133.610 185.069,133.715 185.488 M61.141 195.023 C 58.807 196.437,58.741 196.289,63.247 199.740 C 67.367 202.894,66.682 202.782,68.946 200.670 L 70.800 198.940 70.004 198.277 L 69.207 197.613 68.804 198.473 C 68.260 199.631,66.763 200.359,65.436 200.110 C 63.011 199.655,61.576 196.712,62.905 194.915 C 63.699 193.840,63.027 193.882,61.141 195.023 M74.531 194.712 C 76.984 196.642,76.894 202.648,74.378 204.921 C 72.906 206.252,72.771 206.108,73.712 204.209 C 74.843 201.925,74.889 198.376,73.820 195.800 C 73.067 193.984,73.249 193.704,74.531 194.712 M80.654 194.600 C 79.152 198.061,79.007 201.560,80.256 204.200 C 81.141 206.073,81.100 206.159,79.793 205.162 C 77.074 203.088,76.889 197.010,79.478 194.832 C 80.441 194.021,80.949 193.921,80.654 194.600 M91.250 195.177 C 92.465 197.633,90.109 200.714,87.459 200.132 C 86.416 199.903,85.067 198.762,85.067 198.110 C 85.067 197.440,84.826 197.477,83.901 198.290 L 83.135 198.963 83.737 199.604 C 84.068 199.957,85.018 200.778,85.848 201.430 L 87.356 202.615 90.893 199.687 C 94.892 196.377,94.925 196.297,92.800 195.029 C 90.868 193.876,90.618 193.900,91.250 195.177 M39.969 200.325 C 39.526 201.375,39.464 209.190,39.893 209.942 C 40.133 210.362,40.264 210.278,41.025 209.218 C 42.227 207.545,42.277 207.560,42.180 209.574 C 42.071 211.828,42.726 213.899,44.590 217.200 C 45.336 218.520,46.273 220.366,46.672 221.303 C 47.302 222.779,47.437 222.940,47.680 222.505 C 48.112 221.732,48.244 222.143,47.988 223.467 C 46.318 232.111,49.239 245.184,54.058 250.630 L 54.916 251.600 54.781 250.267 C 54.629 248.767,54.564 248.716,56.358 251.493 C 56.922 252.366,58.283 254.006,59.383 255.140 C 60.483 256.273,61.128 256.840,60.815 256.400 C 60.503 255.960,59.337 254.340,58.223 252.800 C 55.930 249.627,54.435 246.746,53.702 244.086 L 53.200 242.267 53.067 244.133 L 52.933 246.000 51.771 243.079 C 48.683 235.320,48.018 227.078,49.771 218.300 C 49.972 217.289,49.532 217.564,48.609 219.022 L 47.907 220.133 47.441 218.241 C 46.968 216.318,46.436 214.908,44.032 209.200 C 43.291 207.440,42.680 205.790,42.676 205.533 C 42.661 204.782,42.321 204.987,41.467 206.261 C 41.027 206.918,40.587 207.458,40.489 207.461 C 40.138 207.472,39.928 203.295,40.188 201.467 C 40.498 199.291,40.469 199.140,39.969 200.325 M76.257 206.649 C 76.409 206.933,76.523 208.343,76.509 209.782 L 76.486 212.400 75.786 210.267 C 75.401 209.093,75.055 208.086,75.016 208.029 C 74.978 207.971,74.313 208.191,73.540 208.517 C 69.073 210.401,68.873 210.394,71.412 208.445 C 74.242 206.272,75.755 205.711,76.257 206.649 M80.213 206.773 C 81.631 207.492,84.889 209.867,84.706 210.049 C 84.641 210.115,83.420 209.671,81.994 209.064 C 79.053 207.812,79.254 207.738,78.386 210.400 L 77.733 212.400 77.648 210.667 C 77.430 206.214,77.850 205.576,80.213 206.773 M174.667 216.985 C 153.151 218.895,154.157 250.528,175.733 250.514 C 181.304 250.511,184.302 249.323,187.947 245.676 C 189.165 244.458,190.096 243.355,190.015 243.225 C 189.839 242.939,183.515 238.400,183.294 238.400 C 183.208 238.400,182.440 239.046,181.588 239.835 C 175.963 245.043,168.238 241.180,168.589 233.333 C 168.921 225.903,176.255 222.773,181.692 227.742 L 183.119 229.046 186.343 226.590 C 190.165 223.679,190.110 223.894,187.645 221.468 C 184.285 218.163,179.606 216.546,174.667 216.985 M204.359 218.327 C 204.128 218.880,201.119 225.993,197.672 234.133 C 194.225 242.273,191.344 249.143,191.271 249.400 C 191.148 249.832,191.493 249.867,195.940 249.867 L 200.741 249.867 201.869 247.062 L 202.996 244.257 209.122 244.328 L 215.249 244.400 216.356 247.133 L 217.463 249.867 222.332 249.867 C 225.009 249.867,227.200 249.766,227.200 249.644 C 227.200 249.521,224.160 242.231,220.445 233.444 L 213.690 217.467 209.234 217.394 L 204.778 217.320 204.359 218.327 M230.133 233.733 L 230.133 249.867 234.800 249.867 L 239.467 249.867 239.467 245.067 L 239.467 240.267 241.267 240.273 L 243.067 240.279 246.239 245.073 L 249.412 249.867 254.722 249.867 C 258.895 249.867,259.990 249.795,259.837 249.533 C 259.730 249.350,258.133 246.987,256.288 244.283 C 254.443 241.578,252.844 239.219,252.734 239.041 C 252.603 238.827,253.013 238.447,253.942 237.923 C 260.869 234.013,260.602 222.686,253.499 219.198 C 250.608 217.779,249.086 217.610,239.133 217.605 L 230.133 217.600 230.133 233.733 M84.933 220.186 C 83.057 220.512,80.117 220.614,71.467 220.655 C 52.917 220.743,49.704 222.622,50.569 232.883 L 50.776 235.333 50.983 233.333 C 51.702 226.371,57.057 224.066,68.133 225.952 C 74.989 227.119,78.342 227.079,88.000 225.711 C 97.744 224.330,99.401 224.916,102.053 230.682 L 103.211 233.200 103.037 231.467 C 102.043 221.569,96.576 218.162,84.933 220.186 M248.344 226.472 C 250.757 228.314,249.869 231.939,246.800 232.774 C 246.213 232.933,244.323 233.064,242.600 233.065 L 239.467 233.067 239.467 229.309 L 239.467 225.551 243.421 225.642 C 247.267 225.731,247.403 225.754,248.344 226.472 M85.333 228.011 C 83.353 228.119,80.653 228.338,79.333 228.497 C 77.699 228.695,75.998 228.706,74.000 228.532 C 68.314 228.038,66.252 227.959,64.800 228.181 L 63.333 228.405 63.251 229.706 L 63.168 231.006 64.051 230.793 C 64.536 230.675,65.353 230.604,65.867 230.636 C 66.380 230.667,67.580 230.728,68.533 230.771 C 69.487 230.814,70.604 230.943,71.017 231.058 C 71.537 231.202,72.089 231.121,72.818 230.792 C 73.396 230.531,74.379 230.341,75.001 230.369 C 77.650 230.490,78.611 230.440,79.937 230.109 C 81.035 229.836,81.723 229.825,83.092 230.060 C 84.498 230.300,85.131 230.285,86.301 229.980 C 88.131 229.503,89.088 229.506,90.912 229.991 C 92.656 230.455,92.800 230.386,92.800 229.084 C 92.800 227.620,92.719 227.608,85.333 228.011 M209.261 237.008 C 207.501 237.050,206.003 237.025,205.931 236.953 C 205.859 236.881,206.555 234.941,207.477 232.640 L 209.154 228.458 210.808 232.696 L 212.461 236.933 209.261 237.008 M53.440 230.772 C 52.573 233.033,54.009 240.189,56.147 244.257 C 57.250 246.356,62.864 253.898,64.955 256.089 C 70.043 261.421,81.287 262.356,87.859 257.993 C 90.587 256.183,91.714 254.908,98.857 245.547 C 100.934 242.827,101.979 239.707,101.968 236.262 C 101.958 233.101,101.597 232.876,100.557 235.381 C 94.651 249.593,88.160 254.766,76.800 254.313 C 66.088 253.887,61.502 249.572,55.209 234.000 C 53.624 230.078,53.673 230.167,53.440 230.772 M72.993 231.934 C 72.381 232.610,72.057 233.601,71.850 235.424 L 71.669 237.030 72.568 237.171 C 73.062 237.248,74.277 237.386,75.267 237.477 L 77.067 237.642 77.067 235.012 C 77.067 232.391,77.064 232.380,76.292 231.924 C 75.271 231.321,73.543 231.326,72.993 231.934 M79.000 231.932 L 78.133 232.363 78.133 235.004 L 78.133 237.646 80.200 237.473 C 84.163 237.144,84.021 237.290,83.374 234.206 C 82.810 231.515,81.357 230.759,79.000 231.932 M64.594 232.005 C 63.187 232.583,64.396 236.291,66.859 238.951 C 68.676 240.914,68.638 240.958,67.995 237.640 C 67.704 236.141,67.467 234.457,67.467 233.899 C 67.467 232.359,66.033 231.413,64.594 232.005 M88.288 231.981 C 88.013 232.155,87.927 232.693,87.972 233.946 C 88.009 234.978,87.813 236.605,87.484 237.990 C 86.803 240.858,86.796 240.755,87.612 239.988 C 89.313 238.391,92.000 234.098,92.000 232.979 C 92.000 232.140,89.218 231.392,88.288 231.981 M68.400 232.267 C 68.309 232.414,68.317 233.404,68.418 234.467 C 68.859 239.095,71.200 238.047,71.200 233.222 C 71.200 232.434,68.802 231.616,68.400 232.267 M84.620 232.396 C 84.130 232.739,84.085 232.926,84.288 233.796 C 84.416 234.348,84.523 235.349,84.527 236.020 L 84.533 237.241 85.400 237.126 C 86.676 236.956,86.933 236.444,86.933 234.082 L 86.933 232.000 86.059 232.000 C 85.579 232.000,84.931 232.178,84.620 232.396 M80.290 239.282 C 79.161 239.676,78.423 241.004,78.216 243.009 L 78.067 244.451 78.878 244.332 C 79.323 244.266,80.268 244.327,80.977 244.468 C 84.427 245.150,85.230 244.505,85.779 240.607 C 86.005 238.996,83.107 238.296,80.290 239.282 M69.757 239.695 C 69.597 239.954,70.447 243.092,70.913 243.962 C 71.207 244.511,72.066 244.703,73.733 244.593 C 74.027 244.574,74.927 244.523,75.733 244.479 L 77.200 244.400 77.161 242.967 C 77.118 241.411,76.556 240.377,75.441 239.804 C 74.713 239.430,69.977 239.339,69.757 239.695 M89.439 242.565 C 88.867 243.542,87.718 245.155,86.883 246.149 C 85.241 248.106,85.263 248.267,87.180 248.267 C 88.782 248.267,89.262 247.479,90.166 243.365 C 90.812 240.427,90.737 240.344,89.439 242.565 M65.213 242.000 C 66.606 248.270,67.162 249.202,69.200 248.690 C 70.142 248.454,70.031 247.869,68.773 246.441 C 68.171 245.758,67.084 244.300,66.357 243.200 C 65.379 241.721,65.081 241.408,65.213 242.000 M74.429 245.310 C 74.007 245.577,74.144 247.851,74.610 248.317 C 75.006 248.712,76.831 248.646,77.097 248.227 C 78.249 246.409,76.211 244.181,74.429 245.310 M78.733 245.342 C 78.125 245.586,77.890 247.056,78.292 248.104 C 78.857 249.575,81.067 248.740,81.067 247.056 C 81.067 245.077,80.474 244.642,78.733 245.342 M71.111 245.511 C 70.472 246.151,71.163 248.533,71.988 248.533 C 73.242 248.533,73.766 247.304,73.171 245.755 C 73.009 245.331,71.473 245.149,71.111 245.511 M81.976 245.701 C 81.545 246.822,81.994 248.666,82.717 248.749 C 84.105 248.910,85.201 246.641,84.213 245.653 C 83.772 245.212,82.150 245.246,81.976 245.701 M69.467 249.840 L 68.400 250.000 69.648 250.615 C 72.619 252.078,82.861 252.221,85.683 250.837 C 86.536 250.420,87.196 250.047,87.150 250.009 C 86.959 249.852,70.444 249.694,69.467 249.840 " stroke="none" fill="#fbfbfb" fill-rule="evenodd"></path><path id="path3" d="M77.133 144.730 C 77.977 144.783,79.357 144.783,80.200 144.730 C 81.043 144.677,80.353 144.634,78.667 144.634 C 76.980 144.634,76.290 144.677,77.133 144.730 M39.590 153.133 L 38.267 154.533 39.667 153.210 C 40.437 152.482,41.067 151.852,41.067 151.810 C 41.067 151.611,40.820 151.832,39.590 153.133 M94.733 173.784 C 94.990 173.851,95.410 173.851,95.667 173.784 C 95.923 173.717,95.713 173.662,95.200 173.662 C 94.687 173.662,94.477 173.717,94.733 173.784 M85.472 182.127 C 85.210 182.417,84.873 182.578,84.723 182.486 C 84.573 182.393,84.530 182.446,84.627 182.603 C 84.724 182.759,84.653 182.942,84.468 183.007 C 84.284 183.073,84.202 183.202,84.285 183.293 C 84.368 183.384,84.842 183.040,85.337 182.529 C 85.833 182.018,86.173 181.600,86.094 181.600 C 86.014 181.600,85.735 181.837,85.472 182.127 M27.200 188.651 C 27.200 189.468,27.352 189.534,27.544 188.800 C 27.621 188.507,27.575 188.200,27.442 188.118 C 27.309 188.036,27.200 188.276,27.200 188.651 M119.426 192.026 C 119.375 192.773,119.423 193.440,119.533 193.508 C 119.643 193.576,119.733 192.964,119.733 192.149 C 119.733 190.293,119.549 190.219,119.426 192.026 M54.729 193.333 C 54.729 193.847,54.783 194.057,54.850 193.800 C 54.918 193.543,54.918 193.123,54.850 192.867 C 54.783 192.610,54.729 192.820,54.729 193.333 M72.606 196.000 C 72.606 196.660,72.658 196.930,72.722 196.600 C 72.785 196.270,72.785 195.730,72.722 195.400 C 72.658 195.070,72.606 195.340,72.606 196.000 M45.934 197.733 C 45.937 198.320,45.991 198.529,46.055 198.197 C 46.119 197.865,46.117 197.385,46.050 197.130 C 45.983 196.875,45.931 197.147,45.934 197.733 M20.062 198.400 C 20.062 198.913,20.117 199.123,20.184 198.867 C 20.251 198.610,20.251 198.190,20.184 197.933 C 20.117 197.677,20.062 197.887,20.062 198.400 M27.653 198.491 C 27.578 198.687,27.623 199.017,27.754 199.224 C 27.927 199.498,27.993 199.400,27.996 198.867 C 28.000 198.070,27.870 197.927,27.653 198.491 M74.734 200.133 C 74.737 200.720,74.791 200.929,74.855 200.597 C 74.919 200.265,74.917 199.785,74.850 199.530 C 74.783 199.275,74.731 199.547,74.734 200.133 M135.733 199.716 C 135.733 199.853,135.403 200.015,135.000 200.076 C 134.317 200.179,134.327 200.190,135.133 200.227 C 135.744 200.255,136.000 200.148,136.000 199.867 C 136.000 199.647,135.940 199.467,135.867 199.467 C 135.793 199.467,135.733 199.579,135.733 199.716 M128.595 200.533 C 128.595 201.047,128.650 201.257,128.717 201.000 C 128.784 200.743,128.784 200.323,128.717 200.067 C 128.650 199.810,128.595 200.020,128.595 200.533 M20.867 200.184 C 21.123 200.251,21.543 200.251,21.800 200.184 C 22.057 200.117,21.847 200.062,21.333 200.062 C 20.820 200.062,20.610 200.117,20.867 200.184 M111.200 200.350 C 111.200 200.396,111.590 200.786,112.067 201.217 L 112.933 202.000 112.150 201.133 C 111.420 200.325,111.200 200.144,111.200 200.350 M32.334 202.000 C 32.337 202.587,32.391 202.795,32.455 202.464 C 32.519 202.132,32.517 201.652,32.450 201.397 C 32.383 201.142,32.331 201.413,32.334 202.000 M121.160 204.000 C 121.160 205.247,121.206 205.757,121.262 205.133 C 121.318 204.510,121.318 203.490,121.262 202.867 C 121.206 202.243,121.160 202.753,121.160 204.000 M39.285 204.800 C 39.285 205.753,39.334 206.143,39.393 205.667 C 39.452 205.190,39.452 204.410,39.393 203.933 C 39.334 203.457,39.285 203.847,39.285 204.800 M124.067 204.133 C 124.070 204.720,124.125 204.929,124.189 204.597 C 124.252 204.265,124.250 203.785,124.183 203.530 C 124.116 203.275,124.064 203.547,124.067 204.133 M116.093 206.667 C 116.093 207.913,116.139 208.423,116.195 207.800 C 116.251 207.177,116.251 206.157,116.195 205.533 C 116.139 204.910,116.093 205.420,116.093 206.667 M111.285 208.800 C 111.285 209.753,111.334 210.143,111.393 209.667 C 111.452 209.190,111.452 208.410,111.393 207.933 C 111.334 207.457,111.285 207.847,111.285 208.800 M41.808 208.200 C 41.759 208.310,41.797 209.000,41.892 209.733 L 42.066 211.067 42.054 209.533 C 42.042 208.044,41.995 207.785,41.808 208.200 M101.933 214.050 C 102.190 214.118,102.610 214.118,102.867 214.050 C 103.123 213.983,102.913 213.929,102.400 213.929 C 101.887 213.929,101.677 213.983,101.933 214.050 M66.210 218.597 C 67.058 218.650,68.378 218.650,69.143 218.596 C 69.908 218.543,69.213 218.499,67.600 218.500 C 65.987 218.500,65.361 218.544,66.210 218.597 M74.200 220.731 C 75.190 220.782,76.810 220.782,77.800 220.731 C 78.790 220.680,77.980 220.638,76.000 220.638 C 74.020 220.638,73.210 220.680,74.200 220.731 M49.139 223.467 C 49.139 224.127,49.191 224.397,49.255 224.067 C 49.318 223.737,49.318 223.197,49.255 222.867 C 49.191 222.537,49.139 222.807,49.139 223.467 M48.883 229.733 C 48.884 230.613,48.934 230.941,48.993 230.462 C 49.053 229.983,49.051 229.263,48.991 228.862 C 48.930 228.461,48.881 228.853,48.883 229.733 M77.949 234.800 C 77.951 235.680,78.001 236.008,78.060 235.529 C 78.119 235.049,78.118 234.329,78.057 233.929 C 77.996 233.528,77.948 233.920,77.949 234.800 M77.139 235.733 C 77.139 236.393,77.191 236.663,77.255 236.333 C 77.318 236.003,77.318 235.463,77.255 235.133 C 77.191 234.803,77.139 235.073,77.139 235.733 M66.400 238.750 C 66.400 238.796,66.790 239.186,67.267 239.617 L 68.133 240.400 67.350 239.533 C 66.620 238.725,66.400 238.544,66.400 238.750 M82.733 238.850 C 82.990 238.918,83.410 238.918,83.667 238.850 C 83.923 238.783,83.713 238.729,83.200 238.729 C 82.687 238.729,82.477 238.783,82.733 238.850 M81.676 247.333 C 81.678 248.067,81.730 248.335,81.791 247.930 C 81.853 247.524,81.851 246.924,81.788 246.596 C 81.724 246.268,81.674 246.600,81.676 247.333 M62.933 248.350 C 62.933 248.396,63.323 248.786,63.800 249.217 L 64.667 250.000 63.883 249.133 C 63.153 248.325,62.933 248.144,62.933 248.350 M83.676 249.797 C 84.451 249.851,85.651 249.850,86.342 249.796 C 87.034 249.741,86.400 249.697,84.933 249.697 C 83.467 249.698,82.901 249.743,83.676 249.797 M76.322 251.931 C 77.305 251.982,78.985 251.982,80.055 251.932 C 81.125 251.881,80.320 251.839,78.267 251.839 C 76.213 251.838,75.338 251.880,76.322 251.931 " stroke="none" fill="#696969" fill-rule="evenodd"></path><path id="path4" d="M75.814 138.599 C 77.251 138.647,79.531 138.647,80.881 138.599 C 82.230 138.550,81.053 138.511,78.267 138.511 C 75.480 138.511,74.376 138.551,75.814 138.599 M73.538 144.727 C 74.017 144.786,74.737 144.785,75.138 144.724 C 75.539 144.663,75.147 144.614,74.267 144.616 C 73.387 144.617,73.059 144.667,73.538 144.727 M82.067 144.722 C 82.397 144.785,82.937 144.785,83.267 144.722 C 83.597 144.658,83.327 144.606,82.667 144.606 C 82.007 144.606,81.737 144.658,82.067 144.722 M69.067 165.600 L 68.400 165.814 69.133 165.840 C 69.537 165.855,69.867 165.747,69.867 165.600 C 69.867 165.453,69.837 165.345,69.800 165.360 C 69.763 165.375,69.433 165.483,69.067 165.600 M98.067 175.660 C 98.543 175.719,99.323 175.719,99.800 175.660 C 100.277 175.600,99.887 175.552,98.933 175.552 C 97.980 175.552,97.590 175.600,98.067 175.660 M95.267 180.991 C 95.670 181.052,96.330 181.052,96.733 180.991 C 97.137 180.930,96.807 180.880,96.000 180.880 C 95.193 180.880,94.863 180.930,95.267 180.991 M96.467 184.193 C 96.943 184.252,97.723 184.252,98.200 184.193 C 98.677 184.134,98.287 184.085,97.333 184.085 C 96.380 184.085,95.990 184.134,96.467 184.193 M48.918 186.158 C 48.836 186.291,49.076 186.400,49.451 186.400 C 50.268 186.400,50.334 186.248,49.600 186.056 C 49.307 185.979,49.000 186.025,48.918 186.158 M119.539 189.600 C 119.539 190.260,119.591 190.530,119.655 190.200 C 119.718 189.870,119.718 189.330,119.655 189.000 C 119.591 188.670,119.539 188.940,119.539 189.600 M43.676 190.933 C 43.741 191.373,43.840 191.733,43.897 191.733 C 43.954 191.733,44.000 191.373,44.000 190.933 C 44.000 190.493,43.901 190.133,43.780 190.133 C 43.658 190.133,43.612 190.493,43.676 190.933 M98.954 192.467 C 98.978 193.861,99.107 193.748,99.260 192.200 C 99.315 191.650,99.264 191.200,99.146 191.200 C 99.029 191.200,98.943 191.770,98.954 192.467 M48.339 192.533 C 48.339 193.193,48.391 193.463,48.455 193.133 C 48.518 192.803,48.518 192.263,48.455 191.933 C 48.391 191.603,48.339 191.873,48.339 192.533 M110.734 192.933 C 110.737 193.520,110.791 193.729,110.855 193.397 C 110.919 193.065,110.917 192.585,110.850 192.330 C 110.783 192.075,110.731 192.347,110.734 192.933 M81.175 199.467 C 81.175 201.887,81.216 202.877,81.265 201.667 C 81.314 200.457,81.314 198.477,81.265 197.267 C 81.216 196.057,81.175 197.047,81.175 199.467 M123.529 196.533 C 123.529 197.047,123.583 197.257,123.650 197.000 C 123.718 196.743,123.718 196.323,123.650 196.067 C 123.583 195.810,123.529 196.020,123.529 196.533 M116.627 198.133 C 116.627 199.380,116.672 199.890,116.729 199.267 C 116.785 198.643,116.785 197.623,116.729 197.000 C 116.672 196.377,116.627 196.887,116.627 198.133 M136.067 196.933 C 136.070 197.520,136.125 197.729,136.189 197.397 C 136.252 197.065,136.250 196.585,136.183 196.330 C 136.116 196.075,136.064 196.347,136.067 196.933 M125.929 197.867 C 125.929 198.380,125.983 198.590,126.050 198.333 C 126.118 198.077,126.118 197.657,126.050 197.400 C 125.983 197.143,125.929 197.353,125.929 197.867 M104.085 199.200 C 104.085 200.153,104.134 200.543,104.193 200.067 C 104.252 199.590,104.252 198.810,104.193 198.333 C 104.134 197.857,104.085 198.247,104.085 199.200 M32.601 199.067 C 32.604 199.653,32.658 199.862,32.722 199.530 C 32.786 199.199,32.783 198.719,32.717 198.464 C 32.650 198.209,32.598 198.480,32.601 199.067 M77.683 199.600 C 77.684 200.480,77.734 200.808,77.793 200.329 C 77.853 199.849,77.851 199.129,77.791 198.729 C 77.730 198.328,77.681 198.720,77.683 199.600 M79.283 200.133 C 79.284 201.013,79.334 201.341,79.393 200.862 C 79.453 200.383,79.451 199.663,79.391 199.262 C 79.330 198.861,79.281 199.253,79.283 200.133 M20.067 200.133 C 20.070 200.720,20.125 200.929,20.189 200.597 C 20.252 200.265,20.250 199.785,20.183 199.530 C 20.116 199.275,20.064 199.547,20.067 200.133 M123.806 200.267 C 123.806 200.927,123.858 201.197,123.922 200.867 C 123.985 200.537,123.985 199.997,123.922 199.667 C 123.858 199.337,123.806 199.607,123.806 200.267 M27.834 202.400 C 27.834 204.087,27.877 204.777,27.930 203.933 C 27.983 203.090,27.983 201.710,27.930 200.867 C 27.877 200.023,27.834 200.713,27.834 202.400 M51.016 200.933 C 51.017 201.813,51.067 202.141,51.127 201.662 C 51.186 201.183,51.185 200.463,51.124 200.062 C 51.063 199.661,51.014 200.053,51.016 200.933 M30.239 203.467 C 30.239 205.593,30.281 206.463,30.331 205.400 C 30.382 204.337,30.382 202.597,30.331 201.533 C 30.281 200.470,30.239 201.340,30.239 203.467 M83.230 199.933 C 83.247 200.043,83.997 200.790,84.897 201.592 L 86.533 203.051 84.942 201.392 C 83.322 199.704,83.177 199.580,83.230 199.933 M121.067 201.184 C 121.067 202.001,121.219 202.067,121.411 201.334 C 121.487 201.040,121.441 200.733,121.308 200.651 C 121.175 200.569,121.067 200.809,121.067 201.184 M128.613 202.667 C 128.613 203.473,128.663 203.803,128.724 203.400 C 128.785 202.997,128.785 202.337,128.724 201.933 C 128.663 201.530,128.613 201.860,128.613 202.667 M35.296 204.000 C 35.296 205.393,35.341 205.963,35.396 205.267 C 35.451 204.570,35.451 203.430,35.396 202.733 C 35.341 202.037,35.296 202.607,35.296 204.000 M126.216 203.067 C 126.217 203.947,126.267 204.275,126.327 203.795 C 126.386 203.316,126.385 202.596,126.324 202.195 C 126.263 201.795,126.214 202.187,126.216 203.067 M109.165 204.533 C 109.165 206.073,109.209 206.703,109.263 205.933 C 109.317 205.163,109.317 203.903,109.263 203.133 C 109.209 202.363,109.165 202.993,109.165 204.533 M32.339 204.000 C 32.339 204.660,32.391 204.930,32.455 204.600 C 32.518 204.270,32.518 203.730,32.455 203.400 C 32.391 203.070,32.339 203.340,32.339 204.000 M111.001 204.667 C 111.004 205.253,111.058 205.462,111.122 205.130 C 111.186 204.799,111.183 204.319,111.117 204.064 C 111.050 203.809,110.998 204.080,111.001 204.667 M128.329 206.933 C 128.329 207.447,128.383 207.657,128.450 207.400 C 128.518 207.143,128.518 206.723,128.450 206.467 C 128.383 206.210,128.329 206.420,128.329 206.933 M77.600 209.867 C 77.600 211.236,77.677 212.279,77.771 212.185 C 77.958 211.998,77.909 207.687,77.718 207.496 C 77.653 207.431,77.600 208.498,77.600 209.867 M76.343 209.733 C 76.345 210.467,76.397 210.735,76.458 210.330 C 76.519 209.924,76.518 209.324,76.454 208.996 C 76.391 208.668,76.341 209.000,76.343 209.733 M116.067 209.733 C 116.070 210.320,116.125 210.529,116.189 210.197 C 116.252 209.865,116.250 209.385,116.183 209.130 C 116.116 208.875,116.064 209.147,116.067 209.733 M30.462 209.867 C 30.462 210.380,30.517 210.590,30.584 210.333 C 30.651 210.077,30.651 209.657,30.584 209.400 C 30.517 209.143,30.462 209.353,30.462 209.867 M37.419 210.933 C 37.419 211.887,37.467 212.277,37.526 211.800 C 37.585 211.323,37.585 210.543,37.526 210.067 C 37.467 209.590,37.419 209.980,37.419 210.933 M114.933 210.918 C 114.933 211.513,114.980 212.000,115.037 212.000 C 115.251 212.000,115.355 210.096,115.148 209.968 C 115.030 209.895,114.933 210.322,114.933 210.918 M115.013 213.600 C 115.013 214.407,115.063 214.737,115.124 214.333 C 115.185 213.930,115.185 213.270,115.124 212.867 C 115.063 212.463,115.013 212.793,115.013 213.600 M131.529 214.400 C 131.529 214.913,131.583 215.123,131.650 214.867 C 131.718 214.610,131.718 214.190,131.650 213.933 C 131.583 213.677,131.529 213.887,131.529 214.400 M52.067 215.650 C 52.323 215.718,52.743 215.718,53.000 215.650 C 53.257 215.583,53.047 215.529,52.533 215.529 C 52.020 215.529,51.810 215.583,52.067 215.650 M93.133 216.984 C 93.390 217.051,93.810 217.051,94.067 216.984 C 94.323 216.917,94.113 216.862,93.600 216.862 C 93.087 216.862,92.877 216.917,93.133 216.984 M71.684 217.915 C 71.996 218.313,71.935 218.376,71.151 218.472 L 70.267 218.581 71.267 218.624 C 72.353 218.670,72.531 218.406,71.800 217.833 C 71.381 217.504,71.369 217.513,71.684 217.915 M63.403 218.589 C 63.735 218.652,64.215 218.650,64.470 218.583 C 64.725 218.516,64.453 218.464,63.867 218.467 C 63.280 218.470,63.071 218.525,63.403 218.589 M89.807 219.662 C 90.434 219.719,91.394 219.718,91.940 219.661 C 92.487 219.603,91.973 219.557,90.800 219.558 C 89.627 219.559,89.180 219.606,89.807 219.662 M70.467 220.724 C 70.870 220.785,71.530 220.785,71.933 220.724 C 72.337 220.663,72.007 220.613,71.200 220.613 C 70.393 220.613,70.063 220.663,70.467 220.724 M47.569 229.333 C 47.569 231.167,47.612 231.917,47.664 231.000 C 47.716 230.083,47.716 228.583,47.664 227.667 C 47.612 226.750,47.569 227.500,47.569 229.333 M48.862 227.467 C 48.862 227.980,48.917 228.190,48.984 227.933 C 49.051 227.677,49.051 227.257,48.984 227.000 C 48.917 226.743,48.862 226.953,48.862 227.467 M66.867 227.922 C 67.197 227.985,67.737 227.985,68.067 227.922 C 68.397 227.858,68.127 227.806,67.467 227.806 C 66.807 227.806,66.537 227.858,66.867 227.922 M81.803 228.189 C 82.135 228.252,82.615 228.250,82.870 228.183 C 83.125 228.116,82.853 228.064,82.267 228.067 C 81.680 228.070,81.471 228.125,81.803 228.189 M62.995 229.333 C 62.995 229.847,63.050 230.057,63.117 229.800 C 63.184 229.543,63.184 229.123,63.117 228.867 C 63.050 228.610,62.995 228.820,62.995 229.333 M76.200 228.722 C 76.530 228.785,77.070 228.785,77.400 228.722 C 77.730 228.658,77.460 228.606,76.800 228.606 C 76.140 228.606,75.870 228.658,76.200 228.722 M53.149 233.200 C 53.151 234.080,53.201 234.408,53.260 233.929 C 53.319 233.449,53.318 232.729,53.257 232.329 C 53.196 231.928,53.148 232.320,53.149 233.200 M77.139 233.600 C 77.139 234.260,77.191 234.530,77.255 234.200 C 77.318 233.870,77.318 233.330,77.255 233.000 C 77.191 232.670,77.139 232.940,77.139 233.600 M87.016 234.000 C 87.017 234.880,87.067 235.208,87.127 234.729 C 87.186 234.249,87.185 233.529,87.124 233.129 C 87.063 232.728,87.014 233.120,87.016 234.000 M74.070 237.522 C 74.401 237.586,74.881 237.583,75.136 237.517 C 75.391 237.450,75.120 237.398,74.533 237.401 C 73.947 237.404,73.738 237.458,74.070 237.522 M80.470 237.522 C 80.801 237.586,81.281 237.583,81.536 237.517 C 81.791 237.450,81.520 237.398,80.933 237.401 C 80.347 237.404,80.138 237.458,80.470 237.522 M71.933 239.388 C 72.263 239.452,72.803 239.452,73.133 239.388 C 73.463 239.325,73.193 239.273,72.533 239.273 C 71.873 239.273,71.603 239.325,71.933 239.388 M52.800 242.800 C 52.800 243.509,52.855 244.034,52.921 243.968 C 53.130 243.759,53.184 241.895,52.987 241.698 C 52.884 241.595,52.800 242.091,52.800 242.800 M77.411 249.798 C 78.407 249.849,79.967 249.849,80.878 249.797 C 81.788 249.745,80.973 249.703,79.067 249.704 C 77.160 249.704,76.415 249.747,77.411 249.798 M76.867 254.331 C 77.857 254.382,79.477 254.382,80.467 254.331 C 81.457 254.280,80.647 254.238,78.667 254.238 C 76.687 254.238,75.877 254.280,76.867 254.331 " stroke="none" fill="#8f8f8f" fill-rule="evenodd"></path></g></svg>